<?xml version="1.0" standalone="no"?>
<!DOCTYPE svg PUBLIC "-//W3C//DTD SVG 20010904//EN"
 "http://www.w3.org/TR/2001/REC-SVG-20010904/DTD/svg10.dtd">
<svg version="1.0" xmlns="http://www.w3.org/2000/svg"
 width="1280.000000pt" height="937.000000pt" viewBox="0 0 1280.000000 937.000000"
 preserveAspectRatio="xMidYMid meet">
<g transform="translate(0.000000,937.000000) scale(0.100000,-0.100000)"
fill="#000000" stroke="none">
<path d="M7023 9350 c-89 -20 -138 -41 -222 -95 -29 -19 -79 -39 -110 -46 -68
-14 -493 -6 -676 12 -66 7 -255 13 -420 13 -284 1 -304 0 -379 -22 -113 -33
-247 -104 -291 -155 -20 -23 -42 -49 -51 -58 -28 -31 -224 -58 -434 -59 -194
-1 -348 -31 -463 -91 -40 -20 -108 -55 -152 -78 -153 -79 -348 -115 -845 -156
-580 -48 -669 -71 -830 -210 -235 -203 -389 -274 -810 -376 -263 -64 -376
-101 -448 -149 -65 -45 -91 -75 -152 -180 -53 -92 -187 -229 -285 -292 -38
-25 -115 -68 -171 -96 -149 -75 -156 -91 -53 -132 78 -31 84 -52 19 -62 -25
-3 -70 -7 -100 -7 -66 -1 -123 -16 -140 -36 -11 -13 -7 -21 21 -46 67 -61 181
-104 395 -149 185 -39 293 -74 345 -112 86 -62 31 -121 -156 -162 -71 -16
-168 -113 -181 -182 -8 -43 14 -71 59 -76 43 -4 54 -27 38 -76 -17 -50 -11
-66 31 -89 27 -15 56 -18 153 -18 109 0 127 3 190 29 39 16 74 32 80 37 5 6
-52 6 -138 3 -157 -8 -181 0 -111 33 20 10 37 23 37 28 -1 6 -34 24 -74 41
-88 37 -104 64 -39 64 58 0 242 -28 315 -47 114 -31 185 -78 185 -124 0 -53
-111 -116 -300 -169 -63 -17 -120 -35 -127 -38 -6 -4 77 -7 185 -7 208 0 252
-7 313 -48 40 -27 49 -66 24 -103 -22 -34 -121 -80 -217 -101 -43 -10 -78 -20
-78 -23 0 -3 82 -5 183 -5 162 0 186 -2 222 -20 107 -54 70 -154 -71 -190 -69
-17 -287 -25 -293 -10 -2 6 52 29 120 51 143 48 141 59 -9 52 -107 -5 -156
-23 -174 -63 -15 -34 1 -83 35 -109 27 -20 40 -21 265 -21 130 0 247 -4 260
-8 18 -7 22 -15 20 -35 -5 -42 -65 -67 -153 -62 -136 6 -173 4 -199 -13 -55
-36 -70 -95 -28 -113 9 -4 105 -10 212 -15 218 -8 289 -23 316 -65 38 -56 -27
-111 -205 -172 -104 -35 -117 -42 -76 -37 241 25 325 24 359 -5 37 -30 9 -59
-96 -101 l-73 -30 101 6 c114 7 154 1 154 -24 0 -43 -163 -96 -336 -110 -140
-11 -178 -28 -137 -62 24 -21 160 -16 272 10 195 44 312 47 319 8 4 -22 -11
-29 -232 -102 -204 -67 -269 -94 -230 -95 36 0 181 29 336 67 114 29 153 35
174 28 103 -37 6 -117 -236 -196 -134 -44 -123 -46 105 -24 174 17 263 19 249
6 -5 -5 -89 -30 -187 -55 -313 -79 -378 -128 -289 -216 41 -41 92 -60 162 -60
43 0 70 -13 70 -32 0 -4 -25 -24 -55 -44 -30 -21 -53 -39 -51 -42 3 -2 33 3
68 12 35 8 108 23 163 31 55 9 101 18 104 20 6 7 -44 24 -198 66 -160 44 -181
53 -181 74 0 35 197 115 281 115 65 0 94 -16 159 -87 107 -117 134 -187 87
-230 -34 -31 -61 -43 -217 -94 -169 -55 -163 -56 120 -30 172 17 242 16 214
-2 -5 -3 -70 -23 -144 -45 -235 -69 -315 -110 -308 -155 5 -33 30 -31 95 8 87
52 197 76 324 73 84 -2 104 -6 104 -18 0 -19 -117 -64 -260 -101 l-110 -28
191 0 c154 -1 194 -4 203 -15 14 -17 -8 -31 -103 -67 -31 -11 -54 -24 -51 -28
2 -5 33 -14 67 -20 106 -21 138 -31 138 -46 0 -25 -203 -74 -254 -61 -21 5
-26 12 -26 36 0 41 -29 53 -125 54 -123 1 -128 -4 -65 -67 29 -30 69 -82 89
-117 60 -105 60 -105 289 -106 217 -2 272 -13 272 -54 0 -30 -42 -68 -84 -75
-20 -4 -34 -11 -31 -15 3 -4 40 -22 84 -40 140 -56 122 -72 -149 -130 -107
-23 -202 -47 -210 -52 -9 -5 47 -6 145 -1 240 12 320 8 374 -19 25 -13 53 -34
63 -48 25 -37 45 -117 32 -137 -5 -9 -79 -45 -164 -82 -95 -40 -147 -67 -135
-69 10 -2 106 6 212 18 268 32 269 27 13 -85 -100 -44 -177 -81 -171 -83 7 -2
67 3 134 11 184 24 244 28 270 18 17 -7 31 -31 55 -93 58 -155 46 -170 -150
-178 -74 -4 -133 -11 -139 -17 -18 -18 -3 -56 61 -152 111 -165 171 -199 335
-187 52 3 107 9 122 11 31 6 59 -7 49 -23 -3 -5 -50 -37 -104 -70 -117 -72
-182 -137 -182 -182 0 -26 6 -33 36 -46 30 -13 65 -14 193 -9 128 6 159 4 175
-8 12 -8 17 -21 13 -30 -9 -23 -75 -54 -132 -62 -93 -12 -106 -16 -117 -41
-28 -61 60 -104 217 -104 113 0 138 -13 130 -68 -6 -42 -3 -49 44 -81 28 -21
31 -25 17 -33 -11 -6 -43 -5 -86 1 -38 6 -79 11 -92 11 -19 -1 -20 -2 -7 -10
30 -17 42 -64 29 -105 -7 -20 -9 -39 -6 -42 3 -4 23 -1 45 5 21 7 59 12 84 12
56 0 97 -31 132 -100 40 -79 167 -172 325 -239 113 -48 176 -61 301 -61 175 0
288 20 1244 215 519 106 936 184 1139 214 157 23 177 21 526 -65 278 -67 457
-116 1100 -299 754 -214 973 -273 1105 -296 183 -33 228 -34 320 -9 227 61
312 177 475 645 131 378 268 731 615 1585 276 680 797 2040 1508 3935 248 662
285 775 332 1021 20 106 19 139 -5 230 -39 144 -96 224 -222 311 -141 98 -292
162 -718 308 -140 48 -285 102 -321 120 -71 36 -128 92 -130 128 -1 12 -2 96
-3 187 -3 273 -37 337 -235 439 -55 28 -146 67 -203 86 -162 54 -242 64 -474
58 -315 -9 -1002 32 -1754 102 -368 35 -562 59 -875 110 -509 83 -683 97 -822
65z m477 -148 c412 -79 1015 -247 2685 -748 1894 -569 2192 -684 2342 -902 64
-94 87 -182 80 -301 -24 -402 -333 -1285 -1367 -3916 -534 -1360 -838 -2143
-957 -2470 -110 -301 -227 -557 -275 -602 -82 -75 -413 -84 -793 -22 -286 47
-477 97 -1080 283 -258 79 -924 282 -1480 451 -1789 543 -2171 663 -2313 732
-202 98 -287 236 -252 408 7 33 61 179 120 325 137 334 369 922 855 2165 975
2495 1432 3636 1658 4145 156 350 209 423 340 466 59 20 301 12 437 -14z m930
-72 c278 -37 1511 -147 2130 -190 470 -33 635 -111 684 -320 20 -82 20 -185 1
-274 -17 -80 -28 -96 -64 -96 -46 0 -1435 410 -2236 660 -637 199 -762 252
-515 220z m-2494 -10 c398 -22 690 -43 712 -51 30 -12 29 -40 -11 -156 -55
-161 -135 -347 -231 -538 -81 -161 -96 -183 -134 -209 -53 -35 -101 -108 -160
-241 -69 -155 -152 -415 -133 -415 4 0 27 20 51 45 54 55 75 59 67 13 -7 -45
-1038 -2677 -1121 -2861 -61 -139 -69 -52 -62 748 9 1026 49 2204 96 2835 27
359 77 683 116 762 18 36 43 48 128 63 88 16 438 19 682 5z m-1147 -243 c27
-8 52 -22 64 -39 20 -27 20 -29 4 -150 -27 -198 -55 -592 -87 -1243 -5 -115
-12 -255 -15 -310 -12 -230 -46 -1061 -70 -1730 -49 -1335 -72 -1579 -180
-1894 -41 -121 -248 -582 -259 -578 -7 2 -14 75 -18 193 -8 250 -27 533 -88
1324 -64 838 -123 1837 -185 3135 -18 376 -20 847 -5 959 31 221 99 308 265
335 78 13 523 11 574 -2z m-1047 -332 c23 -196 115 -1505 227 -3230 45 -691
56 -870 103 -1675 7 -118 12 -408 13 -645 0 -367 -3 -443 -17 -520 -16 -84
-121 -451 -132 -462 -10 -10 -25 8 -34 40 -5 18 -32 106 -60 197 -65 213 -213
721 -567 1945 -158 545 -361 1247 -451 1560 -91 314 -237 815 -324 1115 -198
680 -246 868 -285 1128 -18 125 -19 209 -1 284 32 136 69 151 477 193 431 44
672 75 889 114 154 28 154 28 162 -44z m-1741 -455 c5 0 14 -12 20 -27 72
-190 1610 -5443 1919 -6553 159 -573 274 -864 369 -937 59 -45 67 -59 46 -83
-63 -69 -205 -40 -342 69 -55 44 -113 122 -113 152 0 40 -40 130 -212 484
-243 497 -427 877 -825 1709 -183 384 -392 813 -462 955 -167 334 -329 676
-658 1396 -414 903 -505 1099 -643 1385 -244 504 -318 687 -341 841 -20 137 6
184 138 252 276 141 1002 383 1081 361 8 -2 18 -4 23 -4z m4269 -135 c-16 -58
-80 -158 -115 -181 -23 -15 -28 -15 -40 -3 -12 12 -13 22 -4 54 16 59 64 139
106 175 32 28 37 30 51 16 13 -13 13 -21 2 -61z m-5563 -720 c8 -12 9 -22 3
-30 -13 -16 -93 -24 -150 -16 -36 5 -45 10 -45 26 0 42 163 59 192 20z m-365
-206 c25 -13 23 -35 -4 -43 -13 -3 -59 -6 -103 -6 -92 0 -125 7 -125 26 0 17
16 26 60 35 42 9 147 2 172 -12z m324 -45 c97 -48 77 -84 -47 -84 -73 0 -125
20 -141 54 -9 22 -8 29 8 47 26 29 103 22 180 -17z m283 -363 c13 -8 13 -15 2
-49 -18 -54 -7 -79 45 -105 69 -33 59 -51 -23 -44 -82 7 -308 52 -378 75 -73
25 -73 49 2 57 32 3 119 21 193 40 161 40 142 37 159 26z m1630 -3476 c22 -22
6 -42 -39 -50 -49 -8 -147 2 -156 16 -27 44 153 76 195 34z m619 -1336 c12 -5
22 -13 22 -18 0 -21 -42 -31 -130 -31 -118 0 -167 23 -102 48 54 22 154 22
210 1z m934 -128 c56 -44 108 -185 108 -296 2 -261 113 -429 335 -505 85 -29
155 -39 369 -54 185 -12 218 -17 203 -33 -4 -3 -102 -28 -219 -55 -237 -55
-409 -72 -484 -48 -129 41 -200 153 -284 453 -80 282 -126 527 -103 550 12 13
51 7 75 -12z m-858 -11 c29 -11 34 -35 10 -44 -26 -10 -204 -7 -225 5 -22 11
-17 26 15 39 29 12 169 12 200 0z m1269 -134 c59 -21 103 -61 131 -118 69
-142 43 -374 -48 -429 -65 -39 -164 -8 -199 63 -51 104 -47 418 6 486 12 16
62 15 110 -2z m-1072 -146 c10 -6 19 -17 19 -25 0 -23 -35 -35 -105 -35 -100
0 -136 27 -72 55 38 17 130 19 158 5z m1729 -105 c162 -34 728 -172 760 -186
36 -16 17 -23 -146 -53 -217 -41 -351 -56 -564 -62 -218 -8 -349 4 -390 35
-35 25 -59 94 -59 169 -1 75 10 99 52 118 44 20 188 11 347 -21z m728 -328
c12 -13 13 -20 5 -28 -17 -17 -92 -27 -148 -20 -40 5 -50 10 -50 25 0 42 155
60 193 23z m432 -17 c0 -11 -77 -51 -202 -105 -49 -21 -88 -41 -88 -45 0 -4
32 -10 72 -13 191 -16 75 -73 -352 -172 -324 -76 -593 -125 -679 -125 -57 0
-81 18 -53 43 21 19 176 67 336 104 65 15 113 29 107 31 -18 6 -439 -47 -635
-79 -99 -17 -190 -28 -203 -24 -30 7 -29 29 1 43 73 33 376 100 956 211 201
39 437 86 525 104 172 37 215 43 215 27z m280 -113 c42 -21 37 -44 -11 -57
-44 -12 -132 -6 -158 10 -12 7 -12 11 -2 24 27 32 126 46 171 23z m-1731 -366
c15 -9 20 -16 13 -23 -18 -18 -134 -38 -259 -45 -110 -5 -123 -4 -129 11 -9
22 13 43 62 62 49 18 277 15 313 -5z"/>
<path d="M6988 8768 c-98 -132 -219 -475 -206 -583 l3 -30 23 25 c32 34 130
231 187 375 38 94 48 133 49 180 1 73 -19 84 -56 33z"/>
<path d="M7236 8717 c-118 -122 -206 -320 -214 -483 -11 -223 64 -239 249 -55
70 71 105 115 133 168 107 208 71 433 -70 433 -32 0 -45 -8 -98 -63z m131
-101 c-11 -107 -132 -397 -169 -404 -23 -4 -32 49 -25 147 6 93 37 189 83 259
38 57 68 76 98 60 16 -9 18 -18 13 -62z"/>
<path d="M8436 8185 c-15 -8 -38 -23 -50 -33 -122 -95 -293 -219 -424 -306
-187 -123 -208 -148 -199 -229 3 -29 28 -122 56 -209 54 -166 86 -314 96 -441
7 -77 21 -107 51 -107 29 0 133 60 235 136 97 72 578 451 607 479 11 10 5 41
-37 176 -109 355 -149 454 -205 514 -38 39 -80 46 -130 20z"/>
<path d="M6769 7781 c-87 -58 -177 -212 -186 -319 -4 -49 0 -65 24 -112 36
-71 68 -88 118 -64 96 45 185 231 185 385 0 138 -45 173 -141 110z"/>
<path d="M11195 7432 c-64 -35 -125 -77 -250 -170 -179 -134 -525 -413 -525
-423 0 -6 45 -142 101 -302 175 -508 155 -467 211 -444 62 26 532 392 632 491
111 111 119 174 60 458 -59 284 -111 418 -162 418 -10 0 -39 -13 -67 -28z"/>
<path d="M9360 6921 c-95 -29 -235 -125 -572 -394 -129 -102 -188 -155 -188
-168 0 -11 27 -145 60 -299 60 -278 115 -471 136 -477 27 -9 539 391 640 499
33 36 71 87 85 114 22 44 24 60 23 169 -3 189 -40 429 -78 504 -25 47 -61 65
-106 52z"/>
<path d="M7628 6366 c-32 -13 -81 -38 -110 -57 -127 -79 -502 -356 -506 -373
-4 -16 156 -486 204 -600 47 -112 95 -166 148 -166 50 0 94 25 211 120 55 45
171 129 257 186 86 58 168 118 182 135 35 42 41 85 22 177 -22 108 -91 349
-120 422 -68 167 -151 212 -288 156z"/>
<path d="M10461 5748 c-69 -35 -670 -483 -678 -505 -6 -16 107 -440 154 -577
44 -128 89 -216 109 -216 54 0 619 433 703 539 43 54 71 119 71 166 0 57 -26
200 -56 302 -61 211 -133 323 -206 323 -20 0 -62 -14 -97 -32z"/>
<path d="M6979 4586 c-83 -29 -151 -67 -299 -167 -161 -109 -274 -202 -322
-266 -52 -68 -58 -116 -30 -228 12 -44 41 -179 66 -300 53 -256 89 -375 115
-375 34 0 459 314 592 438 96 89 119 137 119 253 0 218 -77 587 -135 645 -29
29 -25 29 -106 0z"/>
<path d="M9768 3981 c-86 -34 -200 -124 -556 -440 -89 -79 -162 -148 -162
-155 0 -14 266 -745 274 -753 11 -11 567 399 642 474 96 96 107 149 75 363
-68 453 -130 568 -273 511z"/>
<path d="M8043 3569 c-19 -6 -39 -22 -50 -42 -23 -39 -150 -127 -318 -222
-175 -98 -289 -186 -321 -247 -12 -23 -12 -37 0 -102 38 -195 196 -700 223
-710 9 -4 46 8 87 27 193 92 581 451 689 638 24 41 27 56 27 146 0 243 -75
454 -181 508 -31 16 -106 18 -156 4z"/>
<path d="M6199 2895 c-82 -30 -224 -130 -542 -383 -108 -85 -118 -96 -113
-120 3 -15 15 -97 26 -182 43 -319 84 -495 131 -553 26 -35 43 -34 115 4 155
83 407 273 530 401 112 117 147 188 152 315 5 106 -6 174 -49 318 -51 166 -91
216 -176 214 -21 0 -54 -6 -74 -14z"/>
<path d="M9087 2235 c-53 -20 -183 -106 -381 -254 -248 -184 -275 -216 -284
-331 -5 -80 29 -327 63 -459 28 -104 69 -188 96 -196 24 -8 121 42 254 131
112 75 524 386 535 404 7 11 -103 481 -140 600 -33 107 -68 133 -143 105z"/>
<path d="M10094 1821 c-66 -24 -149 -78 -199 -130 -36 -38 -40 -47 -40 -94 0
-40 10 -76 39 -142 22 -50 43 -94 47 -99 4 -5 54 31 110 80 149 130 209 217
209 303 0 53 -7 69 -41 86 -36 19 -63 18 -125 -4z"/>
<path d="M9577 1136 c-141 -51 -292 -308 -256 -438 14 -55 74 -117 119 -124
63 -10 118 12 180 74 157 158 188 423 56 483 -48 22 -50 22 -99 5z m108 -90
c45 -33 6 -135 -97 -250 -111 -125 -168 -86 -118 78 41 132 150 220 215 172z"/>
<path d="M9947 1003 c-55 -62 -207 -442 -207 -518 0 -97 57 -61 125 80 77 159
145 388 130 436 -8 24 -27 24 -48 2z"/>
<path d="M5702 8723 c-37 -7 -36 -27 6 -83 51 -67 62 -104 69 -221 9 -163 -41
-398 -107 -502 -41 -65 -104 -95 -164 -77 -23 6 -68 29 -102 51 -33 21 -68 39
-77 39 -41 0 -26 -126 21 -182 77 -91 205 -89 307 4 128 116 183 268 204 553
14 189 49 272 148 347 31 24 58 48 60 54 2 6 -13 14 -34 18 -42 6 -294 6 -331
-1z"/>
<path d="M5486 7340 c-57 -54 -150 -178 -196 -262 -34 -60 -38 -113 -14 -161
19 -37 196 -277 204 -277 3 0 36 55 73 123 89 163 111 248 105 401 -5 116 -19
167 -57 205 -32 32 -57 26 -115 -29z"/>
<path d="M4329 8354 c-100 -30 -185 -142 -215 -282 -17 -85 -17 -149 1 -234
19 -90 45 -147 91 -197 53 -59 104 -82 202 -92 105 -11 138 -28 162 -84 19
-44 53 -66 72 -47 15 15 29 151 23 232 -11 144 -46 416 -66 505 -25 116 -54
175 -99 197 -42 21 -107 22 -171 2z m150 -160 c60 -50 66 -171 11 -226 -23
-23 -37 -28 -74 -28 -118 0 -116 -111 4 -236 61 -64 72 -87 44 -98 -40 -15
-130 58 -172 141 -57 112 -69 261 -28 348 53 112 148 156 215 99z"/>
<path d="M4363 7150 c-39 -23 -115 -117 -150 -184 -38 -74 -30 -130 32 -237
58 -98 100 -149 124 -149 23 0 87 68 155 163 55 77 76 127 76 178 0 40 -59
148 -110 201 -52 54 -76 59 -127 28z"/>
<path d="M3028 7961 c-30 -34 -82 -113 -121 -185 -38 -69 -74 -126 -80 -126
-7 0 -36 45 -66 100 -62 115 -107 172 -150 190 -71 29 -77 -10 -26 -174 18
-61 48 -163 65 -226 18 -63 51 -156 75 -207 63 -133 159 -230 178 -178 6 15
-2 76 -27 190 -19 88 -20 117 -2 160 18 43 51 53 100 30 43 -20 73 -58 150
-181 61 -100 114 -154 149 -154 34 0 47 19 47 69 -1 76 -48 161 -168 301 -80
93 -116 167 -109 221 3 21 21 70 41 108 67 129 36 163 -56 62z"/>
<path d="M3155 6848 c-80 -44 -155 -184 -156 -294 -1 -67 17 -100 92 -168 67
-61 130 -96 171 -96 49 0 100 89 128 225 29 139 -29 289 -127 331 -39 17 -81
17 -108 2z"/>
<path d="M1344 7443 c-15 -16 -16 -36 -11 -193 11 -321 71 -673 125 -741 l19
-22 21 21 c20 20 25 36 37 134 3 25 16 61 28 80 44 67 153 97 232 64 19 -8 66
-42 105 -75 39 -34 75 -61 80 -61 36 0 -36 163 -147 330 -157 236 -329 420
-435 465 -34 13 -38 13 -54 -2z m215 -250 c52 -61 109 -175 117 -236 6 -45 5
-48 -33 -87 -96 -96 -181 -12 -213 209 -29 193 22 238 129 114z"/>
<path d="M1807 6360 c-66 -78 -92 -242 -52 -325 21 -43 95 -121 178 -186 76
-60 92 -54 145 53 93 190 90 250 -16 360 -123 128 -204 159 -255 98z"/>
<path d="M5793 743 c-13 -2 -23 -9 -23 -14 0 -5 43 -9 95 -9 94 0 125 12 64
24 -34 6 -100 6 -136 -1z"/>
<path d="M186 6790 c7 -6 54 -15 105 -18 84 -6 94 -9 97 -27 2 -14 -12 -30
-48 -54 -27 -19 -48 -36 -46 -38 2 -2 24 1 47 8 24 6 100 21 169 33 145 26
144 29 -17 71 -111 30 -327 47 -307 25z"/>
<path d="M909 5924 c-87 -18 -138 -37 -139 -49 0 -15 194 -18 264 -5 70 14
126 39 126 57 0 18 -163 16 -251 -3z"/>
<path d="M1385 5115 c-82 -15 -170 -47 -205 -75 l-25 -20 61 0 c100 0 384 81
353 101 -19 12 -101 10 -184 -6z"/>
<path d="M1963 4058 c-24 -5 -43 -13 -43 -19 0 -12 147 -12 155 0 12 21 -55
33 -112 19z"/>
<path d="M2307 2852 c-29 -32 -22 -70 16 -88 64 -30 129 26 93 81 -21 31 -83
35 -109 7z"/>
<path d="M2555 2501 c-15 -6 -5 -10 38 -15 68 -9 196 2 176 15 -17 11 -187 10
-214 0z"/>
<path d="M2853 2013 c-13 -2 -23 -9 -23 -14 0 -5 43 -9 95 -9 90 0 122 10 73
24 -25 6 -110 6 -145 -1z"/>
</g>
</svg>
